<svg width="24" height="24" viewBox="0 0 24 24" fill="none" xmlns="http://www.w3.org/2000/svg">
<path d="M24 15.34V16.7333C24 16.8133 23.956 16.8844 23.892 16.9155C23.5 17.1022 22.158 17.7866 21.6 18.6489C20.176 20.8511 19.088 24 16.656 24H6.50998C2.91402 24 0 20.7511 0 16.7422V16.6133C0 16.5067 0.0779825 16.42 0.173991 16.42H5.83002C5.94199 16.42 6.02398 16.5356 6.01402 16.6578C5.97399 17.0666 6.04201 17.4844 6.216 17.8644C6.55199 18.6222 7.248 19.0956 7.99999 19.0956H10.8V16.6667H8.03199C7.89 16.6667 7.80602 16.4844 7.88802 16.3556C7.91799 16.3044 7.95202 16.2511 7.988 16.1911C8.25001 15.7778 8.624 15.1356 8.99601 14.4045C9.25001 13.9111 9.49599 13.3845 9.694 12.8556C9.73402 12.76 9.76599 12.6622 9.79799 12.5666C9.85199 12.3978 9.90801 12.24 9.948 12.0822C9.98802 11.9489 10.02 11.8089 10.052 11.6778C10.146 11.2289 10.186 10.7533 10.186 10.26C10.186 10.0667 10.178 9.86444 10.162 9.67112C10.154 9.46001 10.13 9.24887 10.106 9.03776C10.09 8.8511 10.06 8.66665 10.028 8.47332C9.98802 8.1911 9.932 7.91113 9.86799 7.62887L9.84599 7.52223C9.79799 7.32887 9.75801 7.14445 9.70202 6.95113C9.54399 6.34443 9.36202 5.75334 9.17 5.20001C9.1 4.98 9.01999 4.7689 8.93999 4.55779C8.82202 4.24001 8.70199 3.95113 8.592 3.67778C8.53602 3.55332 8.48801 3.43999 8.44001 3.32444C8.38601 3.19332 8.33002 3.06221 8.274 2.93779C8.23401 2.84224 8.18799 2.75334 8.15599 2.66444L7.814 1.96222C7.766 1.86666 7.84601 1.75332 7.93999 1.78222L10.08 2.42665H10.086C10.09 2.42665 10.092 2.4289 10.094 2.4289L10.376 2.51554L10.686 2.61335L10.8 2.64887V1.23556C10.8 0.553323 11.292 0 11.9 0C12.204 0 12.48 0.137779 12.678 0.362206C12.876 0.586676 13 0.893338 13 1.23556V3.33335L13.228 3.40443C13.246 3.41113 13.264 3.42 13.28 3.43332C13.336 3.48 13.416 3.54887 13.518 3.63335C13.598 3.70443 13.684 3.79112 13.788 3.88001C13.994 4.06443 14.24 4.30222 14.51 4.57557C14.582 4.64444 14.652 4.71556 14.716 4.78668C15.064 5.14668 15.454 5.56888 15.826 6.03556C15.93 6.16668 16.032 6.3 16.136 6.43999C16.24 6.58222 16.35 6.72221 16.446 6.86224C16.572 7.0489 16.708 7.24222 16.826 7.44445C16.882 7.54001 16.946 7.63778 17 7.73334C17.152 7.98887 17.286 8.25335 17.414 8.51779C17.468 8.64 17.524 8.77332 17.572 8.90444C17.714 9.25778 17.826 9.61778 17.898 9.97778C17.92 10.0556 17.936 10.14 17.944 10.2156V10.2334C17.968 10.34 17.976 10.4533 17.984 10.5689C18.016 10.9378 18 11.3066 17.928 11.6778C17.898 11.8356 17.858 11.9844 17.81 12.1422C17.762 12.2933 17.714 12.4511 17.652 12.6C17.532 12.9089 17.39 13.2178 17.222 13.5067C17.168 13.6133 17.104 13.7267 17.04 13.8334C16.97 13.9466 16.898 14.0533 16.834 14.1578C16.746 14.2911 16.652 14.4311 16.556 14.5556C16.47 14.6867 16.382 14.8178 16.286 14.9333C16.152 15.1089 16.024 15.2756 15.89 15.4356C15.81 15.54 15.724 15.6467 15.636 15.7422C15.55 15.8489 15.462 15.9444 15.382 16.0333C15.248 16.1822 15.136 16.2978 15.042 16.3933L14.822 16.6178C14.79 16.6489 14.748 16.6667 14.704 16.6667H13V19.0956H15.144C15.624 19.0956 16.08 18.9067 16.448 18.56C16.574 18.4378 17.124 17.9089 17.774 17.1111C17.796 17.0844 17.824 17.0644 17.856 17.0556L23.778 15.1534C23.888 15.1178 24 15.2111 24 15.34Z" fill="#B8BCCB"/>
</svg>
